<svg id="Layer_1" height="512" viewBox="0 0 512 512" width="512" xmlns="http://www.w3.org/2000/svg" data-name="Layer 1"><path d="m289.25 286.11-206.4 32.83v164.24a3.239 3.239 0 0 0 3.29 3.18l201.35 9.64a3.751 3.751 0 0 0 1.35-.19c.82-.29 1.16-1.01 1.13-2.41z" fill="#c79a83"/><path d="m290.42 286.11h-1.17l.72 207.29c.03 1.4-.31 2.12-1.13 2.41v.01l119.08-27.56a4.1 4.1 0 0 0 2.52-3.71v-149z" fill="#997565"/><path d="m386.89 287.35-96.47-.24h-1.17l-3.08-.01h-6.36a51.47 51.47 0 0 1 -.56-7.59c0-29.14 24.21-52.76 54.07-52.76s54.06 23.62 54.06 52.76a54.841 54.841 0 0 1 -.49 7.84z" fill="#f9d438"/><path d="m132.33 24.31a11.166 11.166 0 0 1 5.1 15.26 11.926 11.926 0 0 1 -15.78 4.93 11.174 11.174 0 0 1 -5.1-15.26 11.929 11.929 0 0 1 15.78-4.93z" fill="#7ce5e9"/><path d="m350.79 70.51a11.15 11.15 0 0 1 5.1 15.25 11.912 11.912 0 0 1 -15.77 4.94 11.163 11.163 0 0 1 -5.1-15.26 11.914 11.914 0 0 1 15.77-4.93z" fill="#7ce5e9"/><ellipse cx="257.75" cy="165.2" fill="#f9d438" rx="41.99" ry="40.98"/><path d="m202.74 222.47c0 25.17-20.91 45.57-46.7 45.57s-46.71-20.4-46.71-45.57 20.91-45.58 46.71-45.58 46.7 20.41 46.7 45.58z" fill="#f9d438"/><path d="m248.07 392.91v75a2 2 0 0 1 -2.13 1.96l-123.91-5.6a1.99 1.99 0 0 1 -1.93-1.96v-69.4a2 2 0 0 1 2.03-1.96h123.91a2 2 0 0 1 2.03 1.96z" fill="#6994fe"/><path d="m83 483.18a3.239 3.239 0 0 0 3.29 3.18l26.71 1.279v-126.48l-30 4.781z" fill="#967465"/><path d="m286.17 286.1h-197.74a8.842 8.842 0 0 0 -6.97 3.35l-28.44 74.7a2.98 2.98 0 0 0 2.46 4.79h198.04a3.131 3.131 0 0 0 2.5-1.23l31.05-79.89a1.108 1.108 0 0 0 -.9-1.72z" fill="#e1b7a3"/><path d="m83.02 364.18 28.44-74.765a8.9 8.9 0 0 1 6.97-3.415h-30a8.888 8.888 0 0 0 -6.97 3.4l-28.44 74.755a3.019 3.019 0 0 0 2.46 4.845h30a3 3 0 0 1 -2.46-4.82z" fill="#bc998b"/><path d="m156.036 215.189a4.723 4.723 0 1 1 0-9.432 5.042 5.042 0 0 1 4.009 1.917 6 6 0 0 0 9.451-7.4 16.879 16.879 0 0 0 -8.019-5.637 6 6 0 0 0 -12 .022v.392a16.677 16.677 0 0 0 6.558 32.133 4.723 4.723 0 1 1 0 9.431 5.039 5.039 0 0 1 -4.007-1.916 6 6 0 1 0 -9.453 7.392 16.88 16.88 0 0 0 7.467 5.446 5.995 5.995 0 0 0 11.987-.018 16.668 16.668 0 0 0 -5.994-32.335z" fill="#6994fe"/><path d="m257.749 158.053a3.642 3.642 0 1 1 0-7.27 3.931 3.931 0 0 1 3.126 1.49 6 6 0 1 0 9.453-7.391 15.776 15.776 0 0 0 -7.1-5.144 6 6 0 0 0 -11.975.432 15.589 15.589 0 0 0 6.5 29.883 3.642 3.642 0 1 1 0 7.27 3.93 3.93 0 0 1 -3.127-1.491 6 6 0 1 0 -9.453 7.393 15.771 15.771 0 0 0 6.607 4.936 6 6 0 0 0 11.946 0 15.6 15.6 0 0 0 -5.973-30.111z" fill="#6994fe"/><path d="m351.375 285.6a18.7 18.7 0 0 0 -18.057-13.567 6.411 6.411 0 1 1 0-12.809 6.778 6.778 0 0 1 5.382 2.576 6 6 0 0 0 9.451-7.4 18.622 18.622 0 0 0 -9.483-6.429v-.654a6 6 0 0 0 -12 0v1.117a18.35 18.35 0 0 0 6.646 35.587 6.67 6.67 0 0 1 6.491 4.763 6 6 0 1 0 11.566-3.2z" fill="#6994fe"/><g fill="#80aaff"><path d="m133.774 152.7a6 6 0 0 1 -5.875-4.817 112.117 112.117 0 0 0 -3.774-14.009 6 6 0 1 1 11.357-3.874 124 124 0 0 1 4.181 15.513 6 6 0 0 1 -4.7 7.066 6.066 6.066 0 0 1 -1.189.121z"/><path d="m82.853 188.287a6 6 0 0 1 -5.542-3.7 63.062 63.062 0 0 0 -3.7-7.48 6 6 0 1 1 10.373-6.035 75.159 75.159 0 0 1 4.409 8.905 6 6 0 0 1 -5.537 8.307z"/><path d="m68.233 166.506a5.985 5.985 0 0 1 -4.2-1.71 59.2 59.2 0 0 0 -29.692-15.735 6 6 0 1 1 1.683-11.88 71.153 71.153 0 0 1 36.4 19.035 6 6 0 0 1 -4.2 10.29z"/><path d="m123.39 122.74a6 6 0 0 1 -5.354-3.282c-10.014-19.694-24.481-33.373-34.855-41.38a6 6 0 1 1 7.332-9.5c11.35 8.76 27.194 23.755 38.22 45.44a6 6 0 0 1 -5.343 8.721z"/><path d="m74.589 70.882a5.965 5.965 0 0 1 -3.12-.88 85.8 85.8 0 0 0 -8.4-4.6 6 6 0 0 1 4.9-10.954 94.864 94.864 0 0 1 9.751 5.311 6 6 0 0 1 -3.132 11.122z"/><path d="m102.169 157.815a6 6 0 0 1 -5.328-3.233c-12.819-24.655-33.255-40.129-48.141-48.768a6 6 0 0 1 6.024-10.379c16.261 9.438 38.616 26.4 52.764 53.61a6 6 0 0 1 -5.318 8.77z"/><path d="m39.43 100.263a5.976 5.976 0 0 1 -2.488-.543c-4.377-2-7.117-2.929-7.144-2.938a6 6 0 0 1 3.818-11.377c.133.045 3.3 1.113 8.309 3.4a6 6 0 0 1 -2.495 11.46z"/><path d="m405.659 245.729a6.007 6.007 0 0 1 -5.929-6.965 74.137 74.137 0 0 1 2.236-9.648 6 6 0 0 1 11.478 3.5 61.986 61.986 0 0 0 -1.87 8.078 6 6 0 0 1 -5.915 5.035z"/><path d="m414.843 221.336a6 6 0 0 1 -5.049-9.234 69.9 69.9 0 0 1 31.115-26.485 6 6 0 0 1 4.249 11.222 58.741 58.741 0 0 0 -25.258 21.728 6 6 0 0 1 -5.057 2.769z"/><path d="m350.96 190.635a6.007 6.007 0 0 1 -5.835-7.419c5.726-23.548 17.7-41.61 26.74-52.615a6 6 0 0 1 9.274 7.616c-8.245 10.039-19.163 26.488-24.354 47.834a6 6 0 0 1 -5.825 4.584z"/><path d="m386.484 129.521a6 6 0 0 1 -4.187-10.3 93.086 93.086 0 0 1 8.283-7.3 6 6 0 0 1 7.195 9.6 84.254 84.254 0 0 0 -7.1 6.291 5.976 5.976 0 0 1 -4.191 1.709z"/><path d="m379.771 220.219a6.008 6.008 0 0 1 -5.823-7.472c7.488-29.611 25.36-51.007 39.033-63.741a6 6 0 1 1 8.178 8.781c-12.492 11.635-28.805 31.125-35.576 57.9a6 6 0 0 1 -5.812 4.532z"/><path d="m427.565 150.536a6 6 0 0 1 -3.639-10.775c4.356-3.317 7.2-5.046 7.319-5.118a6 6 0 0 1 6.22 10.262c-.08.049-2.517 1.546-6.27 4.4a5.973 5.973 0 0 1 -3.63 1.231z"/><path d="m218.26 113.036a6 6 0 0 1 -6-6v-10.888a6 6 0 0 1 12 0v10.888a6 6 0 0 1 -6 6z"/><path d="m218.26 81.873a6 6 0 0 1 -6-6v-38.44a6 6 0 1 1 12 0v38.44a6 6 0 0 1 -6 6z"/><path d="m253.541 89.329a6 6 0 0 1 -6-6v-37.812a6 6 0 1 1 12 0v37.812a6 6 0 0 1 -6 6z"/><path d="m253.541 30.756a6 6 0 0 1 -6-6v-8.756a6 6 0 0 1 12 0v8.756a6 6 0 0 1 -6 6z"/><path d="m288.823 113.036a6 6 0 0 1 -6-6v-10.888a6 6 0 0 1 12 0v10.888a6 6 0 0 1 -6 6z"/><path d="m288.823 81.873a6 6 0 0 1 -6-6v-38.44a6 6 0 1 1 12 0v38.44a6 6 0 0 1 -6 6z"/></g><path d="m385.749 455.026a6 6 0 0 1 -6-6v-37.357a6 6 0 0 1 12 0v37.357a6 6 0 0 1 -6 6z" fill="#f4f8fc"/><path d="m385.749 398.826a6 6 0 0 1 -6-6v-3.9a6 6 0 0 1 12 0v3.9a6 6 0 0 1 -6 6z" fill="#f4f8fc"/><path d="m221.91 423.429h-.138l-76.887-1.73a6 6 0 0 1 .269-12l76.888 1.73a6 6 0 0 1 -.132 12z" fill="#557cc9"/><path d="m221.421 450.349h-.138l-76.887-1.73a6 6 0 1 1 .269-12l76.888 1.73a6 6 0 0 1 -.132 12z" fill="#557cc9"/><path d="m53.82 270.934a6.007 6.007 0 0 1 -5.85-7.352l1.64-7.1a6 6 0 0 1 11.692 2.7l-1.641 7.1a6 6 0 0 1 -5.841 4.652z" fill="#d4e1f4"/><path d="m47.969 296.246a6.007 6.007 0 0 1 -5.851-7.353l1.641-7.1a6 6 0 1 1 11.691 2.7l-1.64 7.1a6 6 0 0 1 -5.841 4.653z" fill="#d4e1f4"/><path d="m68.476 283.663a5.984 5.984 0 0 1 -1.274-.137l-7.341-1.586a6 6 0 0 1 2.539-11.73l7.34 1.587a6 6 0 0 1 -1.261 11.866z" fill="#d4e1f4"/><path d="m42.3 278.005a6.047 6.047 0 0 1 -1.274-.136l-7.34-1.587a6 6 0 0 1 2.535-11.73l7.341 1.587a6 6 0 0 1 -1.262 11.866z" fill="#d4e1f4"/><path d="m465.64 418.67a6 6 0 0 1 -5.851-7.352l1.641-7.1a6 6 0 1 1 11.691 2.7l-1.641 7.1a6 6 0 0 1 -5.84 4.652z" fill="#d4e1f4"/><path d="m459.788 443.982a6.007 6.007 0 0 1 -5.85-7.353l1.64-7.1a6 6 0 0 1 11.692 2.7l-1.641 7.1a6 6 0 0 1 -5.841 4.653z" fill="#d4e1f4"/><path d="m480.3 431.4a6.038 6.038 0 0 1 -1.273-.136l-7.341-1.587a6 6 0 0 1 2.535-11.729l7.341 1.586a6 6 0 0 1 -1.262 11.866z" fill="#d4e1f4"/><path d="m454.117 425.742a6.04 6.04 0 0 1 -1.273-.137l-7.341-1.587a6 6 0 0 1 2.535-11.729l7.341 1.587a6 6 0 0 1 -1.262 11.866z" fill="#d4e1f4"/><path d="m443.48 361.35-26-73.32c-.33-.92-1.23-1.54-3.64-1.61l-123.42-.31 44.65 80.99a2.375 2.375 0 0 0 2.19 1.21l104.07-3.93a2.3 2.3 0 0 0 2.15-3.03z" fill="#c79a83"/></svg>